<?xml version="1.0" encoding="UTF-8"?>
<svg id="Layer_1" xmlns="http://www.w3.org/2000/svg" version="1.1" viewBox="0 0 2119.4 904.5">
  <!-- Generator: Adobe Illustrator 29.2.0, SVG Export Plug-In . SVG Version: 2.1.0 Build 108)  -->
  <defs>
    <style>
      .st0 {
        fill: #080a09;
      }

      .st1 {
        fill-rule: evenodd;
      }

      .st1, .st2 {
        fill: #026839;
      }

      .st3 {
        fill: #a09744;
      }

      .st4 {
        fill: #c32f33;
      }
    </style>
  </defs>
  <g>
    <path d="M859.4,388.6c-2.9-2.8-8.3-31.7-9.5-37.8-6.5-32.5-9-73.7-18.6-104.4-4.6-14.8-17-28.1-26.6-39.9l-26,181.8c-7.8,4.8-17,3.2-25.6,1.3-4.1-2.4-8.8-39.8-9.7-46.9-5.9-44.8-6.8-90.8-16.4-134.8-17.8,17.8-24.8,33.4-30,57.7-7.5,35.4-9.6,78.9-20.3,112.6-3,9.4-5.1,13.4-16.2,13.6-9.1.2-14.8-1.2-17-10-6.9-26.6-5.9-61.7-9.3-89.7s-3-29.6-6.6-37.2c-10.2-21.3-60.5-20-63.3-41.3s46.4-6.4,57.1-4.7c31.6,5,50.8,5.9,77.1-14,3.2-2.4,14.5-10.7,13.5-14.3s-32.4-30.9-36.4-38.6l-1.3-9.4c1.3-4.2,9.2-5.5,13.2-5.4,11.4.4,35.6,23.9,48.7,30.6,29.9,15.1,48,8.5,74-9.5s28.8-27.3,40.6-21.7c18.5,18.6-29.1,41.9-30.9,54,3.5,6.5,10.5,11.6,16.3,15.7,25.9,18.4,43.9,17.5,74.5,12.8,12.4-1.9,50.4-16.2,56.7-1.2s-34.4,27.1-46,33.1c-17.3,9.1-18,15.8-20.9,34.2-4.2,26-4.2,52.8-7.3,79-.9,7.1-3.1,32.1-8.6,35.3s-21.1,2.9-25.1-1h0Z"/>
    <path d="M683.4.5c4.5-.6,9.1-.6,13.6-.2,69.4,27.7,137.8,60.3,205,93.4,18.3,9,52.3,23.1,67.3,34.5,20.8,15.8-15.4,29.3-29,20.5-53.8-20.2-107.3-58.6-161.5-76.1-14.4-4.6-16.2-3.3-30,1.8-48.6,17.9-94.4,54.3-140.5,77.3-22,10.9-37.3,11.6-59.9,1.4-21.3-9.6-43.9-24.3-64.1-36.3,44.8-30,90.8-59,137.6-85.8,15-8.6,45.6-28.3,61.4-30.5h0Z"/>
    <path d="M1069.7,120.3c1.2,18.5-3.6,39-1.5,57.3s.2,3.6,2.2,4.9h31.8v-62.2h41l-2.9,40.2c.4,39-1.1,78,2.9,116.7h-41v-69.3h-31.8c-2,1.2-2,2.8-2.2,4.9-2.4,20.3,2.4,43.8,1.5,64.4h-41V120.3h41Z"/>
    <path d="M1300.2,120.3v49.5c48-22.4,68.2,24.3,60.4,65.4s-40.6,58.4-75.3,35l-12.7,9.6-9.9-6.7c3.1-50.7,3.6-102.1-.7-152.8h38.2ZM1301.9,189.9c-1.6,1.6-1.6,5.2-1.8,7.4-1,11.5-1.5,41.5.1,52.3s10.2,11.6,17,5.8c11.3-9.7,11.6-64.2-5.1-67.2-2.5-.4-8.5,0-10.2,1.7Z"/>
    <path d="M1250.7,277.2h-34.6c-1,0-2.7-5.2-4.4-5.6s-11.8,6-15.8,6.6c-47.4,7.5-60.7-46.7-18.8-68.3,4.6-2.4,29.5-9.9,29.9-11.5.9-4.2-3.7-10.6-7.5-12.2-12-4.8-26.1,3.1-36.4,8.8v-29.7c31.3-4,77.2-4.4,81.9,36.2,2.9,24.8-4.3,51.4,5.8,75.5v.2ZM1209.7,220.7c-19.2-1.2-32.4,35.7-10.5,36.7,11.8.5,10.5-6.1,10.5-13.3v-23.3h0Z"/>
    <path d="M1598.5,277.2h-34.6c-1,0-2.8-5.3-4.3-5.6s-10.3,6-14.4,6.7c-27.8,4.7-48.1-10.7-44.1-39.8,3.3-23.9,35.4-33.6,55-39-1.4-14.2-13.4-16-25.5-13.5-7.1,1.5-12.9,7.1-19.7,9.3v-29.7c29.8-4,77.3-4.3,81.9,34.8,2.9,24.8-3.7,52.3,5.8,76.9h0ZM1558.9,220.7c-15-.3-30.3,20-19.9,32.9,5.1,6.3,19.9,2.4,19.9-1.1v-31.8Z"/>
    <path d="M614.4,380.4c-14.3-9.7-28.3-20.1-41.7-31.1-6.1-5-28.8-23.1-31.2-28.2-3.9-8.1-1.5-19.9-2-29.1s-1.4-6.4-1.5-9.8c-.4-13.8-.6-28.2,1.5-41.8,2.2-2,39.9,15.2,44.8,18.1,20.7,12.6,22.6,25.1,25.7,47.8,3.3,24,4.1,49.8,4.4,74h0Z"/>
    <path d="M1472.7,133v31.8c2.1,4.2,14.5,1,15.6,2.1v19.8l-14.9,1.3c-1.7,2.5-1.4,54.4-.5,60.1,1.9,11.8,14.5,7.9,16.3,10.6.4,14.3,4.3,19.6-12.9,21.3-56.2,5.6-36.4-55.7-40.5-91l-2.1-2.1-10.4-.2v-19.8h12.7v-33.9h36.8-.1Z"/>
    <path d="M1653.6,133c.7.5-1.4,1.8-1.4,2.1v29.7c2.2,4.3,15.8.9,17,2.1v19.8l-16.4,1.3c-1.7,2.5-1.4,54.5-.3,59.9,1.8,8.8,8.5,10.5,16.6,9.5v19.8c-26.5,6.9-49.9,4-52.4-27.5-1.5-19.5,1.2-40.9.1-60.6l-12.8-2.3v-19.8c.9-.9,11,1.8,12.7-2.1v-31.8h36.9Z"/>
    <polygon points="1411.9 166.9 1413.3 277.2 1373.7 277.2 1373.7 166.9 1411.9 166.9"/>
    <path d="M1228.1,304.1l-.8,32.6,17.8,1.3v-33.9h22.6v84.8h-22.6v-36.1c-4.7-4.4-12.6-1.6-18.2-.6l1.3,36.6h-22.6v-84.8h22.6-.1Z"/>
    <path d="M1339.8,328.1h16l2.4,5.7c6.8-4.8,14.2-7.8,22.7-5s4.9,4.5,6.5,4.8c2.5.5,7.1-4.7,11.2-5.4,35-6,16.7,40.8,23.3,60.7h-21.2c-.4-7.6,5.2-45.4-2.3-48-2.1-1.3-7.6,2-7.6,3.4v44.5h-21.2c-.8-2,1.4-4.2,1.4-4.9v-39.6c0-.7-3.6-3.7-5-3.6-1.8-.7-6.3,2.6-6.3,3.6v44.5h-19.8v-60.8h0Z"/>
    <path d="M1297.3,374.1c.7,2.3,5.3,2.7,7.5,1.9,1.9-.6,3-3.2,3.4-5.1,1.6-7.5-1.7-39.8-.5-41.5l20.6-1.3c-1.9,20.3-1.9,40.6,0,60.8-4.5-.7-12.2,1.2-16.1-.2s-1.8-4.1-3-4.1c-2.9,0-7.4,6.1-15.5,5.8-27-.8-11.5-44.5-17.7-60.9,1-1.3,19.2-3.2,21.2.7v43.8h.1Z"/>
    <path d="M1486.8,388.9v-58.5c1-2.3,2.9-2.2,5-2.4,5.2-.5,14.2-.5,14.1,5.8,11.5-10,29.8-8,31.8,9.2,1.7,14.5-1.7,31.1,1.4,45.9h-21.2c.8-7.8,3.8-42.1-.3-46.3s-6.7-1.4-8.8,1.1c-6.2,7.4,1.4,34.9-.8,45.2h-21.2Z"/>
    <path d="M1643.8,362c2.1.2,2.2-3.5,2.7-5,1.3-4.6,4.7-25.7,6.1-27.1,2.4-2.5,16.3-2.8,16.6.4-5.7,16.4-8.9,33.6-15.1,49.9s-13.2,34.1-37.2,31.4v-15.6c6.4,4.2,16.7,0,16.8-7.7s-9.3-26.3-11.5-33.6c-2.5-8-4.4-16.2-6.6-24.3.4-2.9,16.7-2.6,19.7-1.6l8.4,33.3h.1Z"/>
    <path d="M1091.9,327.3c36.1-.1,37.1,63.2-.2,63.2s-37.2-63.1.2-63.2ZM1094.8,377.2c4.7-4.9,5.8-37.9-3.2-37.9s-8.3,34-2.9,38.4l3.7.7c.8-.3,1.8-.6,2.4-1.2Z"/>
    <path d="M1459.2,328.1c29.1,4.8,14.2,42.1,21.9,60.8-5.4-.8-13.9,1.2-18.8,0s-.9-2.9-1.7-2.9c-2.3,0-9.1,4.4-14.1,4.3-10.7,0-19.7-9.3-18.8-20.1s9.7-15.4,18.5-19.7c4.2-2.1,17.3-3.7,7.9-10.3s-20,4.6-21.1,3.5v-15.5c8,.9,18.5-1.3,26.1,0h.1ZM1457.8,357.8c-8.4,2.9-15.9,13-6.8,19.5,13,3.8,9.5-19.4,6.8-19.5Z"/>
    <path d="M1032.9,388.9c.2-13.4,3.7-33.1,1.4-45.9-1-5.6-5.3-1.5-6.4-3.4l-.5-9.1c.6-3.3,6.2-1.8,6.8-2.4s-.2-8.9.4-11.6c2.5-12.4,18.8-14.9,29.4-13.8v12.7l-8.5.7c-3.9,1.9-2.9,8.3-2.8,12l8.5.7c4,9.3,1.4,12.9-8.5,12l1.4,48.1h-21.2Z"/>
    <path d="M1601.3,311.2v17l7.2.6c2.1,1.4,2.1,10.1,0,11.5l-7.2.6,1.3,36.2,7.2.6v10.4c-36,12.1-27.3-23.8-28.5-46.3l-7-3.1.7-9.2,6.4-1.4v-16.9h19.9Z"/>
    <path d="M657.8,151.9c29.6-1.2,30.6,44,1,44.2-27.9.3-29-43-1-44.2Z"/>
    <path d="M759.7,107.9c36.6-7.5,36.6,44.3,5.5,43-25.5-1.1-27.7-38.4-5.5-43Z"/>
    <path d="M874.1,151.9c28-.2,28,44.8-1.4,44.2-27.4-.5-28.4-44,1.4-44.2Z"/>
    <path d="M1126.3,388.9v-60.8c8.3.8,18.6-3.7,20.5,7.1,6.2-3.8,9.2-8.8,17.7-7.1l-.6,14.2c-22.8,1.6-16.3,30.8-14.9,46.6h-22.7Z"/>
    <path d="M1387.4,119.2c30.1-6.8,34.6,35.6,9.2,39-25.8,3.5-30.4-34.2-9.2-39Z"/>
    <path d="M1567.4,388.9h-21.2v-58.5c1.1-3.5,18.6-3.5,21.2-.2v58.7Z"/>
    <path d="M1554.3,302.9c14-2.8,17.8,16.9,7.5,20.3-17.2,5.7-20.3-17.7-7.5-20.3Z"/>
    <path d="M1688.6,301.6c26.6-5.5,31.6,32.7,7.8,36.1-25.2,3.6-28.4-31.9-7.8-36.1ZM1688.6,304.4c-14.2,3.2-14.3,28.8,2.7,30.8,23.7,2.8,23-36.6-2.7-30.8Z"/>
    <path d="M1697.7,319.8l4,9.7c-6.6-.2-5.1-12.3-12.7-7.6-.5,2.9,2.1,8.8-2.8,7.7l1.3-20.6c2.5-1.7,11.9-.7,13.5,2.2l.5,6.2-3.8,2.5h0ZM1689,318.2c13.6,1.9,13.6-9,0-7.1v7.1Z"/>
  </g>
  <g>
    <path class="st2" d="M543.3,536.2c0-7.3,5.9-13.2,13.2-13.2h70.2v34.5c0,7.3-4.6,11-13.2,13.2l-70.2,7.9s0-42.4,0-42.4Z"/>
    <path class="st1" d="M163.8,847.2s-11.8-7.9-22.1-22.9c-6.9-10-10.9-25.9-18.6-34.9-11.8-13.9-24.9-19.6-24.9-19.6,0,0,5.1,10,10.6,25.1,2.9,7.9,5.4,20.1,8.2,26.7,3.4,8.1,7.5,15.2,7.5,15.2,0,0-16.1.4-35.9-4.7-19.7-5-43.2-18.1-43.2-18.1,0,0,11,28.6,49.7,38.7,27,7,68.8-5.5,68.8-5.5h0Z"/>
    <path class="st1" d="M106.4,823.4s-6.8-11.9-11.3-29.6c-3-11.9-4.1-29.7-8-40.7-5.4-15.2-13.7-22.1-13.7-22.1,0,0,1.6,10.2,1.8,26.5,0,6-.9,14-1.1,20.3-.3,8.6,3.2,18.9,3.2,18.9,0,0-5-4.1-13.1-9-8-4.9-19-10.6-27.2-16.5-14.4-10.4-24.8-23.5-24.8-23.5,0,0,6,32.5,31.7,52.5,30.7,23.9,62.4,23.2,62.4,23.2h0Z"/>
    <path class="st1" d="M61.1,775.3s-.2-9.8,1.6-23.4c1.3-10.4,4.8-23.3,4.6-34.3-.3-22.3-7.3-38.4-7.3-38.4,0,0-1.3,11.2-4.9,26.6-1.4,5.7-4.9,16.8-5.9,21.7-1.4,6.8-1.8,14.4-1.8,14.4,0,0-4.4-6.8-11.8-14.1-5.2-5.1-13.8-13.4-18.2-18.7C4.5,693.6,0,684.8,0,684.8c0,0-.2,25.1,14.1,46.3,16.1,23.9,47,44.2,47,44.2Z"/>
    <path class="st1" d="M28.7,705.1c7,8.8,10.7,14.2,10.7,14.2,0,0,2.2-12.7,7.7-28.3,3.8-10.6,10.5-22.4,13.4-33.1,4.2-15.7,2.8-28.3,2.8-28.3,0,0-11.5,17.5-20.3,32.8-6.4,11.1-9.9,24.6-9.9,24.6,0,0-4.7-12.8-10.8-24.5-3.4-6.4-8.8-13.3-11.5-19.6-4.5-10.2-5.2-19.6-5.2-19.6,0,0-9.2,22.4-2.3,42.1,5.2,14.6,17.2,29.3,25.3,39.6h.1Z"/>
    <path class="st1" d="M32.1,659.5s5.1-8.7,13.7-19.8c5.2-6.7,13.2-14.2,17.7-21.7,9.6-16,12.2-30.8,12.2-30.8,0,0-4.2,5.2-12,11.8-4.5,3.8-11.6,8-15.9,12.4-7.5,7.6-12.4,16.6-12.4,16.6,0,0-4.6-14.9-5.9-28.2-1.6-15.8,0-30.4,0-30.4,0,0-15.4,16.1-14.8,38,.3,11.4,6.7,27.4,10.8,36.7,4.2,9.6,6.5,15.3,6.5,15.3h.1Z"/>
    <path class="st1" d="M53.8,595.9c7.7-6.4,19.4-14.1,26.7-22.5,10.5-12.1,14.4-27.3,14.4-27.3,0,0-10,10-21.1,17.7-9,6.2-19.7,10.4-19.7,10.4,0,0,.5-4.5,1-13.8.2-4.3,1.3-19.8,2.4-24.5,3.5-15.6,10.1-22.8,10.1-22.8,0,0-21.7,17.1-27.9,38.7-7.3,25.7.8,56.7.8,56.7,0,0,4.4-5.4,13.2-12.7h0Z"/>
    <path class="st1" d="M88.7,540.4c4.1-4.6,9.6-17.8,12.8-22.9,6.8-10.8,9.4-12.8,9.4-12.8,0,0-21,6.2-32.8,19.3-11.9,13.1-14.5,33.1-14.5,33.1,0,0,14.4-4.9,25.1-16.6h0Z"/>
    <path class="st1" d="M432.7,560.4c.5,9.2,1,13.8,1,13.8,0,0-10.7-4.2-19.7-10.4-11.2-7.7-21.1-17.7-21.1-17.7,0,0,3.8,15.2,14.4,27.3,7.3,8.4,19,16.1,26.7,22.5,8.8,7.3,13.2,12.7,13.2,12.7,0,0,8.1-31,.8-56.7-6.1-21.6-27.9-38.7-27.9-38.7,0,0,6.7,7.2,10.1,22.8,1,4.7,2.2,20.2,2.4,24.5h.1Z"/>
    <path class="st1" d="M386.3,517.5c3.2,5.2,8.7,18.4,12.8,22.9,10.6,11.7,25.1,16.6,25.1,16.6,0,0-2.6-19.9-14.5-33.1-11.8-13-32.8-19.3-32.8-19.3,0,0,2.7,2,9.4,12.8h0Z"/>
    <path class="st3" d="M604.9,879l4.6-9.5c1.8,2.1,5,4,9.7,4s7-1.8,7-4.9-3.6-4.7-8.6-6.2c-8.2-2.4-12.6-6-12.6-15.4s7-15.2,16.9-15.2,10.1,1.3,13.4,3.4l-4.4,9.2c-2.1-1.7-4.9-3.1-8.5-3.1s-6.6,1.4-6.6,4.7,2.5,4.2,7.4,5.5c10.6,2.7,14.4,6.5,14.4,15.9s-6.2,15.8-17.9,15.8-11-1.6-14.7-4v-.2Z"/>
    <path class="st3" d="M561.5,832.4h12l15.6,30.7h0v-30.7h11v49.9h-12l-15.6-31.1h0v31.1h-11v-49.9Z"/>
    <path class="st3" d="M654.3,832.4h11.9l16.8,49.9h-12.2l-2.8-8.9h-15.6l-2.8,8.9h-12l16.8-49.9h-.1ZM655,863.7h10.2l-5-17.5h0l-5.1,17.5h0Z"/>
    <path class="st3" d="M685.9,832.4h12l15.6,30.7h0v-30.7h11v49.9h-12l-15.6-31.1h0v31.1h-11v-49.9Z"/>
    <path class="st3" d="M732,882.3v-35.3c0-1.3.9-2,2.3-2.3l8.8-1.4v38.9h-11.1Z"/>
    <path class="st3" d="M732,834.6c0-1.3,1-2.3,2.3-2.3h8.8v6c0,1.3-.8,1.9-2.3,2.3l-8.8,1.4v-7.4Z"/>
    <path class="st3" d="M543.3,882.3v-35.3c0-1.3.9-2,2.3-2.3l8.8-1.4v38.9h-11.1Z"/>
    <path class="st3" d="M543.3,834.6c0-1.3,1-2.3,2.3-2.3h8.8v6c0,1.3-.8,1.9-2.3,2.3l-8.8,1.4v-7.4Z"/>
    <path class="st3" d="M1044.1,882.3h-12.8l-16.1-50h11.6l11,36.4h0l10.5-36.4h11.6l-16,50h.1Z"/>
    <path class="st3" d="M1071,832.3h11.2l15.9,50h-11.6l-2.6-9h-14.8l-2.7,9h-11.4l15.9-50h0ZM1071.7,863.7h9.6l-4.7-17.5h0l-4.8,17.5Z"/>
    <path class="st3" d="M1101.2,832.3h11.1v19.2l14-19.2h13.7l-15.7,19.7,17.7,30.3h-13.8l-11.4-21-4.5,5.6v15.4h-11.1v-50h0Z"/>
    <path class="st3" d="M1145.1,832.3h28.7v10.4h-17.7v10.2h14.9v10.1h-14.9v19.2h-11.1v-50h0Z"/>
    <path class="st3" d="M1177.6,882.3h11.1v-50h-8c-1.8,0-3.2,1.4-3.2,3.5v46.4h0Z"/>
    <path class="st3" d="M787.5,863.7v18.6h-11.7v-18.6l-16.3-31.3h13.2l8.9,20.3,8.9-20.3h13.2l-16.3,31.3h0Z"/>
    <path class="st3" d="M813.7,832.4h11.9l16.8,49.9h-12.2l-2.8-8.9h-15.6l-2.8,8.9h-12l16.8-49.9h-.1ZM814.4,863.7h10.2l-5-17.5h0l-5.1,17.5h0Z"/>
    <path class="st3" d="M888.3,832.3h18.3c13,0,20.8,9.3,20.8,24.8s-7.9,25.2-20.8,25.2h-18.3v-50ZM899.4,871.1h5.2c8.4-.2,11.7-4.1,11.7-14.1s-4.2-13.5-11.7-13.5h-5.2v27.6Z"/>
    <path class="st3" d="M951.6,832.3h16.3l7.3,33.3h0l7.3-33.3h16.3v50h-10.4v-37.9h0l-8.9,37.9h-8.5l-8.9-37.9h0v37.9h-10.4v-50h0Z"/>
    <path class="st3" d="M862.5,864h-4.7v18.3h-12.3v-50h16.9c11.9,0,18,5.3,18,15.3s-2.5,10.7-6.7,13.4l10.6,21.3h-13.1l-8.7-18.3h0ZM857.7,855.1h3.9c4.6,0,6.6-2.3,6.6-6.7s-2-6.7-6.6-6.7h-3.9v13.4h0Z"/>
    <path class="st3" d="M933.1,882.3h11.1v-50h-8c-1.8,0-3.1,1.4-3.1,3.5v46.4h0Z"/>
    <path class="st2" d="M840.2,523c-7.3,0-13.2,5.9-13.2,13.2v89.4h-63.8c-7.9,0-13.9,4.4-16.5,9.9l-11.6,21.6v-134.1h-67.3c-7.3,0-13.2,5.9-13.2,13.2v273.2h67.3c7.3,0,13.2-5.9,13.2-13.2v-100.3h91.8v113.4h67.3c7.3,0,13.2-5.9,13.2-13.2v-273.1h-67.3,0Z"/>
    <path class="st2" d="M1121.5,523c-7.3,0-13.2,5.9-13.2,13.2v89.4h-63.8c-7.9,0-13.9,4.4-16.5,9.9l-11.6,21.6v-134.1h-67.3c-7.3,0-13.2,5.9-13.2,13.2v273.2h67.3c7.3,0,13.2-5.9,13.2-13.2v-100.3h91.8v113.4h67.3c7.3,0,13.2-5.9,13.2-13.2v-273.1h-67.3,0Z"/>
    <path class="st2" d="M626.7,796.4c0,7.3-5.9,13.2-13.2,13.2h-70.2v-202.4c0-7.3,5-11.4,13.2-13.2l70.2-7.9v210.2h0Z"/>
    <path class="st3" d="M306.5,658.3s-9.8,1.1-9.8,10.2,5.4,11.4,9.1,11.8c4.1.4,11.8-2.3,11.8-11.4s-11.1-10.6-11.1-10.6Z"/>
    <path class="st3" d="M400.9,642.6c-5.6-32.2-22.3-60-23.7-62.2-23.1-35.4-59.6-51.6-63.4-53-3.7-1.4-15.8-9.4-21.3-11.6s-20.8-4.4-23.4-4.2-21.1,0-23.9,0-15.9,0-18.5.3c-17.4,2.2-34.2,9.2-38.9,10.7-4.8,1.3-6.5,1.3-8,1.9-34.1,14.8-53.9,39.5-53.9,39.5,0,0-13.6,18.8-14.5,20.4-20.7,35.4-21.2,67.6-21.6,73.7-.4,6.2.3,20.4.3,22.4s.6,18.5,1,24c.4,5.6,1.9,8.4,4.9,11,3,2.5,9.5,8.2,9.5,8.2,0,0,1.4-1.6,2-3.2.6-1.6,1.2-5.1.8-6.9-.5-1.8-.2-4-.2-4l2.5-.4-.9-2.6c-.8-1.4,0-3-.2-4s-2.1-6.2-3.3-12.3c-1.2-6.2,0-9.1,5.2-12.5s14.7-2.9,14.7-2.9c0,0,.2-.6.2-2s-1.8-3.6-2.9-3.8c-1.2-.1-1.6-.4-3.4-1.2s-.4-2-.4-2c1.8,0,1.4-1.3,1.4-1.3l.2-3.4s-2.1.2-4-.6c-6.8-3.1-8.3-14.3-8.1-17.9.2-3.6,2.4-14.8,2.8-16.9,5.3-28,17.7-43.4,21.5-47s8.5-.4,10.9.4c2.3.8,4.1.8,4.1.8,0,0,.4-1.6,2.2-3,1.8-1.3,7.1-3.1,9.1-4.1,1.9-1,1.4-2.2.2-3.2-1.1-1-3.6-2.9-5.6-3.6-1.9-.6-1.3-2-.6-3.2l6.9-7.5c10.6-10.2,18.5-13.4,24.2-16.2,5.8-2.8,12.9-4.9,12.9-4.9v6.5l-2.9,6.3c-5.9,13.7-17.5,27.1-17.5,27.1l-6.5.2c-1,0-5.8-.6-9.9,1.5-4.2,2.2-3,7.2-3,7.2l2,1.8-1,1.4s5.3-.2,7.7.8c2.3,1,4.3,6,4.1,7.9-.2,2-2,11.3-5.2,21.4-3.2,10.1-3.9,20-3.7,25.2.2,5.1.4,8.3-1.2,12.3-1.6,3.9-7.3,5.7-11.7,5.5-4.4-.3-12.3,0-15,.3-2.8.4-.6,1.2-.6,1.2l.2,2,1.7,3.2-1.8,3.5-1,1.6c3.9.2,5.5,3.6,5.5,3.6,0,0,2.2-.4,4.9,0,2.8.4,11.5,3.1,14.2,5.2,2.8,2,4.2,4.8,3.9,6.2-.2,1.3.2,6.4,0,8.3-1.6,16.4,3.5,24.2,5.7,28.2,2.2,3.9,3.8,10.7,4.3,16.5.6,5.7-3.3,6.5-9.1,10.3s-21.6,11.6-21.6,11.6c0,0-3.1,0-10-8.1-7-8.2-11.6-23.1-11.8-24.9-.2-1.8.2-4.5-3.6-2.4-3.8,2.2-1.9,5.6-1.2,8.9.8,3.4,0,4.6-1.2,5s-5.5-5.6-7.5-7-1.3,1.6-1.2,3.1c.6,10.8,7,18.8,8.4,20.5,32.2,37.8,79.8,56.2,89.1,59.6,9.3,3.4,15.4,3,18.4,3.1h14v.3c.1,0,5.3.9,5.3.9l3.5-1.7.6-4c-1.1-3.3-2.9-8.5-5.3-15.1-6-16.6.8-39.9,1.8-43.3,3.1-11.9,9.7-26.9,21.5-46.2,12.5-20.4,16.6-38.9,12.4-55.1-2.2-8.4-6.4-14.8-10.4-19.2.2,0,.4.1.6.2,5.1,1.9,12,4.6,23.8,2.8,4.1-.6,8.3-1.5,12.4-2.3,24.2-4.9,47.1-9.6,60.3,25.7,2.8,7.5,4.2,15.6,5.8,24.2,2.8,15.6,6.4,33.4,18.7,48.6l5.4-11.6c1.9-4.2,2.8-6.7,3.1-7.4,8.6-18.9,7.8-32.7,6.9-35.4-1-2.5,1-4.1,2.8-8.3s-1.6-28.4-1.9-30v.6ZM194.3,579.1c1.2-5.5,9.4-29.2,25.7-47.2,1.4-1.6,5.7-4.5,9.5-4.8,3.7,0,4.3,4.8,5.1,6.4.8,1.6,2,8.4,1.2,10.7-.8,2.4-1.8,6.7-2.2,10.1s.8,5.5,1.7,7.9c1,2.4,2,5.4,3.5,5.2,1.6-.2,3.6-2,5.2-3.2,1.6-1.1,5.4-3.9,5.8-8.5.4-4.6-.6-7.2-1.2-9.7-.6-2.6-.6-4.6-.7-7.8-.2-3.1.9-4.3.9-4.3,0,0,0-2.4,1.8-5.2s4.4-3.2,5.8-2.8c1.4.5,6.3,1.8,13.2,13.6.9,1.6,5.3,10,10.2,22.5.8,2.2,2.3,9.5,4.9,13.7s4.9,9.7,4.9,9.7c0,0-9.9,4.1-20,5.5-2.5.4-10.1,1.2-13.5-.8-3.3-2-3.5-5.2-3.3-6.3l-1-5c0-1.2-1.9-7.1-4.7-9.9s-2.8-1.2-2.2.2c.6,1.4,1.7,9.4-1.2,9.5l-1.4-1.4c-1-1.1-2.8-1.1-4.6-1.4-1.7-.2-2.2,1.2-2,2.8.2,1.6,0,7.3,0,7.3,0,0,0,6.2-8.2,6.3-8,.2-15-3.2-21.7-4.6s-9.9-3-9.9-3c0,0-2.9,0-1.7-5.5h0ZM281.7,547.2s9.2,10.6,12.2,19.5c3,9,4.9,10.9,4.9,10.9,0,0-4.3.8-10.2-11.2-3-5.9-4.1-11.9-5.1-14.3-1-2.3-1.8-4.9-1.8-4.9ZM169.6,721.4c-1.5-3-2-7.4-3.3-10.4-1.2-3-2.2-7.4-2.2-7.4,0,0-1-4.2,2.1-4.2s3,.9,4.4,2.8c1.3,1.9,2.2,4.4,2.9,5.1v3.8l-.9,3.5c.6,1.2.2.9.9,3s1.4,4.7,2.1,6.5c.7,1.8,1.1,4.2,1,5.8-.2,1.5-.7,3.8-.9,6.3-.2,2.4-1.1,5.2-1.1,5.2,0,0-1-1.6-1-4.2s-.4-5.2-1.4-7.4c-1-2.1-1-5.6-2.6-8.6v.2ZM199.5,798.7c-1.9-.4-5.4-.5-10.1-2.1-4.7-1.6-13.1-6.9-21.8-12.7-8.7-5.8-14.5-10.2-14.5-10.2,0,0-4.1-1.1-.6-3.4,3.6-2.3,17.4-9.7,19.7-10.8,2.3-1,6.5-3.3,11.5,3.4,5,6.7,12,21.8,14.1,26.4,2.1,4.5,4.4,9.1,4.4,9.1,0,0-.7.7-2.7.4h0ZM229.5,752.5c-6.5,19.4-4.7,44.2-4,51.2-.2,0-.5.2-.7.2-2.3.3-8-1.8-14.5-15-1.6-3.4-6.2-13.4-10.2-23.2-4-9.9-6.5-12.8-6.5-12.8,0,0-1-1.3.7-2.1,1.7-.9,11-4.9,13.1-5.9,2.2-1,6.4-3,8.8-3.1,2.5-.2,7.7,0,10.2.2,2.4.2,2.4-1,4.6,1,0,0,.9.5,1.8,1-1.1,2.9-2.2,5.8-3.2,8.7v-.2ZM232.5,724.4c-3,.1-6.5.8-10.7,1.3-8.4,1-11.4,4-16.6,5.9-5.3,1.9-10.5,4.3-13,4.3h-4.7s-1.1-2.5-2.6-6c-1.6-3.5-3.1-8.9-5.7-16-2.6-7-3.8-7.4-3.6-11.6.2-4.2-.3-6.8,0-9.6.1-2.8,1-3.8.2-5.7-.9-1.8-1.2-2.8-1.9-3.3l-1.2-1.7.4-2.5c1.1-1.1,3.6-2.8,11.5-4.6,7.9-1.7,12.8-1.2,15.9-1.7,3.1-.5,7-.9,10.3-.8,3.3,0,6.3,1,11.9,1.5,5.6.6,7.3,2,10.1,3.2,2.9,1.3,3.7,2.5,3.6,4.3-.2,1.7,0,41.9,0,41.9,0,0-.8.7-3.6.9l-.3.2ZM255.8,697.9s-1.7,2.7-4.3,7.3c-.7-4-1.6-8.6-1.5-9.2.2-1.1,0-3.2,0-6.5s1.7-5.1,2.9-8.6,6.3-5.5,8.8-6.7c.6-.2,2-.7,3.2-1.1-2,13.2-9.1,24.7-9.1,24.7h0ZM264.1,657.4h-10.1c-2,0-6.1.4-8.7,1.4-2.6,1-4.3,1.8-5.7,1.6s-7-1.8-8.7-2.6c-1.8-.8-4-1.2-5.6-1s-1.3.2-2.4.9l-1.8,1.5s-3.1-2.4-4.7-2c-2.7.6-7.9.1-10.7.8-2.8.6-9.7,1.1-12.5,1.3-2.7.2-7-.8-10.8-1.6-4-.8-6.6-.7-6.6-.7l.2-4.6c.2-1,.8-1,.6-3.3-.1-2.4-.4-3.7-.6-7.2-.2-3.4-.8-5.8-.4-7.9.4-2.2,1.4-7.7,3.8-16.1,2.3-8.4,4-13.3,4.8-15.5s1.2-4.6,3.3-4.2c2.2.4,14.9,3.6,18,4,3.2.4,11.6,2.8,17.8,4.6,6.1,1.8,9,4.4,11,5.4s2.8,1,2.6,3-.8,7.7-1.5,10.5c-.6,2.8.8,9.3,1.1,11.9.4,2.6,3.8,13.3,3.8,13.3,0,0,1.9-1.8,3.3-5,1.4-3.2,1.4-5,3-4s4.6,3.6,4.6,3.6c0,0,.2-1,0-2.4-.1-.9.2-4.6.4-7.3,3.4,4.1,9.6,12.4,12.3,21.4l.2.2ZM306,624.5s-13.1,4.2-23.8,4.4c-7.9.1-16.3-1.9-16.3-1.9,0,0-5.8-1.3-10,.6-1.5.7-3,2-4.2,3.2-.7-3.1-1.8-7.8-.7-11.6.7-2.6.7-3.8,5.3-7.9,4.6-4.2,9.1-5,11.3-5.5,2.2-.6,7.5-.8,16.4-3.3s11.1-3.8,11.1-3.8c0,0,1.4-3,3.3-.4,1.4,1.9,7.1,13.4,10.6,25.4-1.9.4-3.1.7-3.1.7h.1ZM303.2,565.6c-7.5-19-15.5-26.3-15.5-26.3,0,0,2-2,3.4-3s2.6-.8,2.6-.8c0,0,4.3,1.6,19.2,8.2,14.9,6.6,19.3,12.6,21,13.8,1.6,1.2.8,2.5.8,2.5,0,0,1.2-.8,1,1.4-.2,2.2-3.4,5.4-8,7.3-4.5,2-14.6,5.5-16.8,6.5-2.2,1.1-4.8-2.6-7.5-9.6h-.2ZM370.8,656.4c-.5-1.3-1-2.5-1.5-3.6-6.6-14.2-16.3-21.3-16.3-21.3,0,0-9.3-8.2-21.3-9.4-2.6-.3-5.2-.3-7.7-.2h0c-.3-.5-2.5-7.6-2.6-7.9l-.8-2.2s-1.2,1-1.6,2.5c0,.4,1.8,7.4,1.7,7.8-2.9.2-5.6.6-7.9,1-.2-.6-.4-1.1-.5-1.2-.8-2.4-1.6-6.6-1.8-7.9-.2-1.4.6-2.1.8-3.2l1.2-3.8c.4-1,.2-1,1.8-.6,1.6.4,3.8.6,3.8.6,0,0,.8-3.6-.8-6.9-1.6-3.4-2.1-5.4-2.1-5.4,0,0-.2-.6,2.8-3,3-2.3,11.5-8.5,15.3-10.9,3.8-2.3,3.4-2.1,6.8-4.2,3.3-1.9,5.7-4.5,5.7-4.5,0,0,6.9,6.3,13.2,14.5,6.3,8.2,15.4,20.9,16.3,20.5,1.1-.4,0-5.2,1.6-5.4,1.6-.2,4.4,2.4,6.2,4.2,1.7,1.8,3.4,2,3.1,3.4-.2,1.4.6,3.4-.8,3.2-1.4-.2-1.6-1.2-2.8-1.2l-2.6.2-1,2.6,1,3.4c.1,1.1,1,5.4,1.9,8.5,1,3.2,2.6,10.2,2.8,11.7.2,1.6.4,8.1.6,10.1s-.2,7-.2,7l-2,1c-1.5.8-3.4,2-4.9,1.8-1.6-.2-4.2-1.1-6.7-1.2h-.7ZM388.5,681.2c-.1,1.6-1.5,4.5-1.9,6.5-1,4.8-1.9,7.7-3.5,12.5l-.6-.3s-1.8-4.1-4.4-14.4c-1.2-4.7-2.5-11.4-4.1-17.9,1.9-.5,4.4-1.4,6.2-1.7,7.5-1.2,7.2-3.6,7.2-3.6,0,0,.7,2.1-.4,5.3s-.6,7.4.4,8.8c1.1,1.4,1.3,3.4,1.1,4.9h0Z"/>
    <path class="st1" d="M364.2,864.1c-19.4-1-39.5-4.6-62.6-11.5-3.1-.9-30.1-8.2-57.7-1.7-27.7-6.5-54.7.8-57.7,1.7-23.1,6.9-43.3,10.6-62.6,11.5-30.5,1.5-47-9-47-9,0,0,16.8,22.7,43.9,27,24.3,3.9,59.1-10.4,59.1-10.4,0,0,22-11.1,43.9-13.1-25.7,13.8-47.7,39.2-47.7,39.2l8.7,6.7s25.4-34.5,59.4-44.3c34,9.8,59.4,44.3,59.4,44.3l8.7-6.7s-22-25.4-47.7-39.2c22,1.9,44,13.1,44,13.1,0,0,34.8,14.3,59.1,10.4,27.1-4.4,43.9-27,43.9-27,0,0-16.6,10.5-47,9h0Z"/>
    <path class="st1" d="M363.4,836.8s4.1-7.1,7.5-15.2c2.8-6.6,5.3-18.8,8.2-26.7,5.4-15.1,10.6-25.1,10.6-25.1,0,0-13.1,5.6-24.9,19.6-7.7,9-11.7,24.9-18.6,34.9-10.3,15-22.1,22.9-22.1,22.9,0,0,41.8,12.5,68.8,5.5,38.7-10.1,49.7-38.7,49.7-38.7,0,0-23.5,13.2-43.2,18.2s-35.9,4.6-35.9,4.6h-.1Z"/>
    <path class="st1" d="M450.5,771.2c-8.2,5.9-19.2,11.6-27.2,16.5-8.1,5-13.1,9-13.1,9,0,0,3.5-10.3,3.2-18.9-.2-6.2-1.2-14.2-1.1-20.3.2-16.2,1.8-26.5,1.8-26.5,0,0-8.2,6.8-13.7,22.1-3.9,11-5,28.7-8,40.7-4.4,17.6-11.3,29.6-11.3,29.6,0,0,31.6.7,62.4-23.2,25.7-20,31.7-52.5,31.7-52.5,0,0-10.4,13.1-24.8,23.5h.1Z"/>
    <path class="st1" d="M473.7,731.1c14.3-21.2,14.1-46.3,14.1-46.3,0,0-4.5,8.8-17.3,24.2-4.4,5.3-13,13.6-18.2,18.7-7.4,7.3-11.8,14.1-11.8,14.1,0,0-.4-7.5-1.8-14.4-1-4.9-4.6-16-5.9-21.7-3.6-15.4-4.9-26.6-4.9-26.6,0,0-7.1,16.1-7.3,38.4-.1,11.1,3.3,23.9,4.6,34.3,1.8,13.6,1.6,23.4,1.6,23.4,0,0,30.9-20.4,47-44.2h-.1Z"/>
    <path class="st1" d="M454.5,687.1s-3.5-13.5-9.8-24.6c-8.8-15.3-20.3-32.8-20.3-32.8,0,0-1.4,12.6,2.8,28.3,2.8,10.7,9.6,22.4,13.4,33.1,5.5,15.6,7.7,28.3,7.7,28.3,0,0,3.7-5.4,10.7-14.2,8.2-10.3,20.2-25,25.3-39.6,6.9-19.7-2.3-42.1-2.3-42.1,0,0-.7,9.4-5.2,19.6-2.8,6.3-8.2,13.2-11.5,19.6-6.2,11.7-10.8,24.5-10.8,24.5h0Z"/>
    <path class="st1" d="M424,599c-7.7-6.6-12-11.8-12-11.8,0,0,2.6,14.8,12.2,30.8,4.5,7.4,12.5,14.9,17.7,21.7,8.6,11.2,13.7,19.8,13.7,19.8,0,0,2.2-5.8,6.5-15.3,4.1-9.3,10.5-25.4,10.8-36.7.6-21.9-14.8-38-14.8-38,0,0,1.6,14.6,0,30.4-1.3,13.2-5.9,28.2-5.9,28.2,0,0-4.9-9-12.4-16.6-4.3-4.3-11.4-8.5-15.9-12.4h0Z"/>
  </g>
  <g>
    <path class="st0" d="M1915.6,861.6h-53.2l-46.4-150.1h-30v150.1h-50.5v-350.8h96.2c22,0,49.1,18.4,59.6,37.3,21.9,39.6,20.4,113.1-16,144.2-3,2.5-12.9,7.6-12.9,10.1l53.2,159h-.1ZM1785.9,666.4h41.6c6.6,0,18.9-10.3,21.9-16.3,7.4-15.6,7.3-64.7-2.8-79.1-3.8-5.2-15.6-12.4-21.8-12.4h-38.9v107.8Z"/>
    <path class="st0" d="M1955.2,861.6v-350.8h90.7c41.2,0,72.8,45.3,71.7,83.9-6,62.6,9.5,143.7-3.6,203.8-16.9,76.8-98.9,61.8-158.8,63h0ZM2005.7,813.8h29.3c1.7,0,12.4-3.4,14.6-4.4,13.7-6.4,16.5-23.5,17.4-37,4.1-60.2-1.6-127.3-2.1-187.8-2.5-9-6.4-17.2-15-21.8s-9.8-4.1-10.9-4.1h-33.4v255.2h.1Z"/>
    <path class="st0" d="M1503.4,861.6l78-350.5,40.1-.2,79.8,350.8h-48.4c-3.8,0-13.7-67-15.7-74.1-1.5-3.9-8.7-.9-11.5-.9-18.9,0-37.8-.7-56.8.6l-14.9,74.4h-50.5,0ZM1627.7,738.7l-25.2-126.9-25.2,126.9h50.5-.1Z"/>
    <path class="st0" d="M1402.4,655.4c18.8,5.6,47.5,18.1,60,33.5,20.6,25.3,19.4,84.8,11.6,115.2-1.6,6.4-10.5,24.2-10.3,27.2-4-.9-5.2,6.4-6.8,8.2s-4.7,4.8-5.5,5.5c-2.8,2.4-19.8,12.3-23.3,13.7-3.4,1.4-31.6,6.6-32.7,5.5v-17.8c0-2.7,1.4-1.3,1.4-3.2,0-3.1-2.3-4.8-2.7-6.4s-.1-2.4,0-2.7,2.5-.7,2.7-3.4-1.3-4.3-1.4-6.2,0-3.6,0-5.5,0-.9,0-1.4v-2.7c3.5-.7,16.4-5,19.6-7.1,15.6-10.1,14.2-44,13.2-60.5-1.5-23.4-8.9-34.8-32.8-38.9v-8.2c1.3-9.8.3-9.9,0-17.8-.2-4.8-.3-10.3,0-15s2.5-8.9,1.4-13.7c.8-.2,4.2,1,5.5,1.4v.2Z"/>
    <path class="st0" d="M1395.7,516.3v-8.2c33.7-1.4,67.4,21.1,78.9,52.9.9,2.6,4.4,14.1,4.4,16.1v34.8h-50.5v-21.2c0-1.6-4.9-15-6-17.1-5.5-10-15.4-15.2-26.7-14.9.7-3.4,0-7,0-9.6v-32.8h-.1Z"/>
    <path class="st4" d="M1342.4,761.9c4.4-.8,10.4.6,15,0v8.2c-4.1.2-10-.9-13.7.7-3.6,1.6-12.9,10.6-3.5,11.6,9,1,9.6-1.4,18.5,4,3,5,6.8,9.8,10.8,14.4,7.3,8.2,17,17.7,26,23.8,0,1.8,1.6,4,1.4,6.2s-2.6,3.1-2.7,3.4c-16.3-13.1-29.5-30-45.4-44-10.7-1.4-27-4.9-31,8.5h25.2l43.1,43.1c3.4,1.7,5-3.8,8.1-4.8.3,1.5,2.6,3.2,2.7,6.4,0,2.1-1.4,3.1-1.4,3.2-4.7,1.9-13.8,15.3-17.3,16.2s-13.5-2.7-16.8-3.9c.2-1.8-1-2.8-1.9-4.1-2.6-3.3-26.3-27.4-28.6-28.7-4.2-2.4-7.4-.5-10.8-1.5-3.4-1-1.7-7.4-6.4-6.6v-1.4c6.7.3,13.7-.5,20.5,0,1,2.7,3.6,3.8,5.5,5.5s.9.9,1.4,1.4l2.7,2.7c.5.5.9.9,1.4,1.4l2.7,2.7c.5.5.9.9,1.4,1.4l1.4,1.4c.5.5.9.9,1.4,1.4,2.3,2.2,4.2,4.4,6.8,6.8s1.5,1.7,2.7,2.7c1.7,2.2,10.1,11.9,11.7,12.2s7.1-5.1,7.2-6.3c.5-2.5-12.3-13.1-14.9-15.5s-.9-.9-1.4-1.4c-2.8-2.6-4.2-5.6-8.2-8.2s-.8-1.1-1.4-1.4c-1.3-4.4-7.8-6.5-9.6-8.2s-2.1-6.6-6.4-7.9c-6.7-1.9-19.8.8-27.7-.2-.6-2.4-2.5-6.8-2.7-8.2s-.1-2.2,0-2.7c1.3-4.7,9.9-7.8,12.9-11.1,5-5.6,9.8-13.1,15.7-19,5.9-5.9,2.1-3.5,5.5-4.1h.1Z"/>
    <path class="st4" d="M1365.6,633.7c.5.9.9,1.8,1.4,2.7s-.2,1,0,1.4c-18-16-34.5-32.9-51.9-49.9-1.5-1.5-4-1.8-4.1-1.9-.2-.2,0-1.9,0-2.7v-2.7c0-.8,1.6-6.7,2.7-4.8,17,19.4,40.6,34.9,51.9,58h0Z"/>
    <path class="st4" d="M1371.1,641.8c-.5-.3-.9-1-1.4-1.4.5.5.9.9,1.4,1.4Z"/>
    <path class="st4" d="M1371.1,641.8c4.7,2.7,12.2,5,16.3,7.6,2.5,1.6,6,6.7,7.6,7.4s1-2.5,2.1-2.7c1.1,4.7-1.1,9.6-1.4,13.7-7.9-6.8-15.3-14.4-22.6-21.8-1.5-1.6-1.6-3.8-1.9-4.1h-.1Z"/>
    <path class="st4" d="M1369.7,640.4c-.3-.2-1.9.5-2.5-.2s0-2.1-.2-2.5c1.3,1,1.6,1.5,2.7,2.7h0Z"/>
    <path class="st4" d="M1360.1,603.6s-1.3-1.3-1.4-1.4h1.4v1.4Z"/>
    <path class="st4" d="M1332.9,566.8c3.6,3.5,7.4,7.3,10.9,10.9s4.8,4.6,6.8,6.8.9.9,1.4,1.4c4.6,5,10.6,9,6.8,16.4-.3-.2-2.2,0-3.4-1.3-12.9-12.9-25.3-26.1-38.9-38.3,0-.9-.1-1.9,0-2.7s1.1-1.4,1.4-2.7,1.3-.9,1.4-2.7h1.4c3.1,5,8.2,8.3,12.3,12.3h-.1Z"/>
    <path class="st4" d="M1395.7,549c0,2.6.7,6.2,0,9.6h-2.7l-39.6-40.2c2.1-2.2,5.1-4.3,8.1-2.7l34.2,33.5h0Z"/>
    <path class="st4" d="M1331.5,538.1c4.7,6.4,9.9,10.9,16.4,15,1.8,5.6,4.6,6,8.2,9.6s.9.9,1.4,1.4l2.7,1.4c2.1,1.8,3.6,5.7,6.8,6.8-1,2.7-2.8,5.5-4.1,8.2-3.2-2.6-6.6-5.4-9.6-8.2s-2.7-2.7-4.1-4.1-.9-.9-1.4-1.4c-3.1-3.2-20.4-20.1-21.2-21.9-1.3-2.5,1.4-4.7,2.2-6.8.8.2,2.2-.2,2.7,0h-.1Z"/>
    <path class="st4" d="M1395.7,682.8c.3,7.9,1.3,7.9,0,17.8-5.2-.5-11.3.7-16.4,0-5.1-.7-2.4-.9-4.1-1.4s-11.7-3.6-12.3-4.1,0-2.6,0-2.7c.2-.2,1.9,0,2.7,0h2.7c7.2-.3,14.6.2,21.8,0,1.8-1.6-6.4-9-9.6-9.6-8.9-1.4-28.4-.3-38.2,0h-1.4c-.2-3.3-7.5-4-6.8-8.2,7.2-1.3,31.3,2.2,36-1.3s-3-7.9-5.2-8.3c-10.3-1.9-30.2,2.5-39.3-.2-2.5-.8-5.1-5.2-5-8h34.1c-3.4-12.4-19.4-10.3-30-9.6s-1.9-.1-2.7,0h-8.2c-.7-6.5-3.8-6.7,2.7-9.6,6.2,2.7,15.2,1.4,21.8.7-6.5-12.1-15-10.7-27.2-10.3-1.3-9.3,1.1-5,6.8-8.9,0-3.3-3.1-3.9-5.5-4.8-2.8-7.9-2.2-7.6-2.7-16.4h1.4l84.6,84.6v.2Z"/>
    <path class="st4" d="M1323.3,761.9h1.4l-17.8,17.8c-.9-14.1,2.3-18.6,16.4-17.8Z"/>
    <path class="st4" d="M1395.7,521.7v12.3c-9.5-5.2-17.1-15.4-24.5-23.1,12.9-5.7,15.8,4.7,24.5,10.9h0Z"/>
    <path class="st4" d="M1350.5,543.5c-4.6-4.7-8.7-10-13.6-14.4,0-.3,5.7-4.6,6.2-4.6,2.5,0,30.9,32.3,36.1,35.9-5.6,4.4-7.3,4.1-12.3-.7-.3-.5-1-.9-1.4-1.4-3.9-5.5-9.1-9-13.7-13.7s-.9-.9-1.4-1.4h0Z"/>
  </g>
  <g>
    <path class="st0" d="M1915.6,861.6h-53.2l-46.4-150.1h-30v150.1h-50.5v-350.8h96.2c22,0,49.1,18.4,59.6,37.3,21.9,39.6,20.4,113.1-16,144.2-3,2.5-12.9,7.6-12.9,10.1l53.2,159h-.1ZM1785.9,666.4h41.6c6.6,0,18.9-10.3,21.9-16.3,7.4-15.6,7.3-64.7-2.8-79.1-3.8-5.2-15.6-12.4-21.8-12.4h-38.9v107.8Z"/>
    <path class="st0" d="M1955.2,861.6v-350.8h90.7c41.2,0,72.8,45.3,71.7,83.9-6,62.6,9.5,143.7-3.6,203.8-16.9,76.8-98.9,61.8-158.8,63h0ZM2005.7,813.8h29.3c1.7,0,12.4-3.4,14.6-4.4,13.7-6.4,16.5-23.5,17.4-37,4.1-60.2-1.6-127.3-2.1-187.8-2.5-9-6.4-17.2-15-21.8s-9.8-4.1-10.9-4.1h-33.4v255.2h.1Z"/>
    <path class="st0" d="M1503.4,861.6l78-350.5,40.1-.2,79.8,350.8h-48.4c-3.8,0-13.7-67-15.7-74.1-1.5-3.9-8.7-.9-11.5-.9-18.9,0-37.8-.7-56.8.6l-14.9,74.4h-50.5,0ZM1627.7,738.7l-25.2-126.9-25.2,126.9h50.5-.1Z"/>
    <path class="st0" d="M1402.4,655.4c18.8,5.6,47.5,18.1,60,33.5,20.6,25.3,19.4,84.8,11.6,115.2-1.6,6.4-10.5,24.2-10.3,27.2-4-.9-5.2,6.4-6.8,8.2s-4.7,4.8-5.5,5.5c-2.8,2.4-19.8,12.3-23.3,13.7-3.4,1.4-31.6,6.6-32.7,5.5v-17.8c0-2.7,1.4-1.3,1.4-3.2,0-3.1-2.3-4.8-2.7-6.4s-.1-2.4,0-2.7,2.5-.7,2.7-3.4-1.3-4.3-1.4-6.2,0-3.6,0-5.5,0-.9,0-1.4v-2.7c3.5-.7,16.4-5,19.6-7.1,15.6-10.1,14.2-44,13.2-60.5-1.5-23.4-8.9-34.8-32.8-38.9v-8.2c1.3-9.8.3-9.9,0-17.8-.2-4.8-.3-10.3,0-15s2.5-8.9,1.4-13.7c.8-.2,4.2,1,5.5,1.4v.2Z"/>
    <path class="st0" d="M1395.7,516.3v-8.2c33.7-1.4,67.4,21.1,78.9,52.9.9,2.6,4.4,14.1,4.4,16.1v34.8h-50.5v-21.2c0-1.6-4.9-15-6-17.1-5.5-10-15.4-15.2-26.7-14.9.7-3.4,0-7,0-9.6v-32.8h-.1Z"/>
    <path class="st4" d="M1342.4,761.9c4.4-.8,10.4.6,15,0v8.2c-4.1.2-10-.9-13.7.7-3.6,1.6-12.9,10.6-3.5,11.6,9,1,9.6-1.4,18.5,4,3,5,6.8,9.8,10.8,14.4,7.3,8.2,17,17.7,26,23.8,0,1.8,1.6,4,1.4,6.2s-2.6,3.1-2.7,3.4c-16.3-13.1-29.5-30-45.4-44-10.7-1.4-27-4.9-31,8.5h25.2l43.1,43.1c3.4,1.7,5-3.8,8.1-4.8.3,1.5,2.6,3.2,2.7,6.4,0,2.1-1.4,3.1-1.4,3.2-4.7,1.9-13.8,15.3-17.3,16.2s-13.5-2.7-16.8-3.9c.2-1.8-1-2.8-1.9-4.1-2.6-3.3-26.3-27.4-28.6-28.7-4.2-2.4-7.4-.5-10.8-1.5-3.4-1-1.7-7.4-6.4-6.6v-1.4c6.7.3,13.7-.5,20.5,0,1,2.7,3.6,3.8,5.5,5.5s.9.9,1.4,1.4l2.7,2.7c.5.5.9.9,1.4,1.4l2.7,2.7c.5.5.9.9,1.4,1.4l1.4,1.4c.5.5.9.9,1.4,1.4,2.3,2.2,4.2,4.4,6.8,6.8s1.5,1.7,2.7,2.7c1.7,2.2,10.1,11.9,11.7,12.2s7.1-5.1,7.2-6.3c.5-2.5-12.3-13.1-14.9-15.5s-.9-.9-1.4-1.4c-2.8-2.6-4.2-5.6-8.2-8.2s-.8-1.1-1.4-1.4c-1.3-4.4-7.8-6.5-9.6-8.2s-2.1-6.6-6.4-7.9c-6.7-1.9-19.8.8-27.7-.2-.6-2.4-2.5-6.8-2.7-8.2s-.1-2.2,0-2.7c1.3-4.7,9.9-7.8,12.9-11.1,5-5.6,9.8-13.1,15.7-19,5.9-5.9,2.1-3.5,5.5-4.1h.1Z"/>
    <path class="st4" d="M1365.6,633.7c.5.9.9,1.8,1.4,2.7s-.2,1,0,1.4c-18-16-34.5-32.9-51.9-49.9-1.5-1.5-4-1.8-4.1-1.9-.2-.2,0-1.9,0-2.7v-2.7c0-.8,1.6-6.7,2.7-4.8,17,19.4,40.6,34.9,51.9,58h0Z"/>
    <path class="st4" d="M1371.1,641.8c-.5-.3-.9-1-1.4-1.4.5.5.9.9,1.4,1.4Z"/>
    <path class="st4" d="M1371.1,641.8c4.7,2.7,12.2,5,16.3,7.6,2.5,1.6,6,6.7,7.6,7.4s1-2.5,2.1-2.7c1.1,4.7-1.1,9.6-1.4,13.7-7.9-6.8-15.3-14.4-22.6-21.8-1.5-1.6-1.6-3.8-1.9-4.1h-.1Z"/>
    <path class="st4" d="M1369.7,640.4c-.3-.2-1.9.5-2.5-.2s0-2.1-.2-2.5c1.3,1,1.6,1.5,2.7,2.7h0Z"/>
    <path class="st4" d="M1360.1,603.6s-1.3-1.3-1.4-1.4h1.4v1.4Z"/>
    <path class="st4" d="M1332.9,566.8c3.6,3.5,7.4,7.3,10.9,10.9s4.8,4.6,6.8,6.8.9.9,1.4,1.4c4.6,5,10.6,9,6.8,16.4-.3-.2-2.2,0-3.4-1.3-12.9-12.9-25.3-26.1-38.9-38.3,0-.9-.1-1.9,0-2.7s1.1-1.4,1.4-2.7,1.3-.9,1.4-2.7h1.4c3.1,5,8.2,8.3,12.3,12.3h-.1Z"/>
    <path class="st4" d="M1395.7,549c0,2.6.7,6.2,0,9.6h-2.7l-39.6-40.2c2.1-2.2,5.1-4.3,8.1-2.7l34.2,33.5h0Z"/>
    <path class="st4" d="M1331.5,538.1c4.7,6.4,9.9,10.9,16.4,15,1.8,5.6,4.6,6,8.2,9.6s.9.9,1.4,1.4l2.7,1.4c2.1,1.8,3.6,5.7,6.8,6.8-1,2.7-2.8,5.5-4.1,8.2-3.2-2.6-6.6-5.4-9.6-8.2s-2.7-2.7-4.1-4.1-.9-.9-1.4-1.4c-3.1-3.2-20.4-20.1-21.2-21.9-1.3-2.5,1.4-4.7,2.2-6.8.8.2,2.2-.2,2.7,0h-.1Z"/>
    <path class="st4" d="M1395.7,682.8c.3,7.9,1.3,7.9,0,17.8-5.2-.5-11.3.7-16.4,0-5.1-.7-2.4-.9-4.1-1.4s-11.7-3.6-12.3-4.1,0-2.6,0-2.7c.2-.2,1.9,0,2.7,0h2.7c7.2-.3,14.6.2,21.8,0,1.8-1.6-6.4-9-9.6-9.6-8.9-1.4-28.4-.3-38.2,0h-1.4c-.2-3.3-7.5-4-6.8-8.2,7.2-1.3,31.3,2.2,36-1.3s-3-7.9-5.2-8.3c-10.3-1.9-30.2,2.5-39.3-.2-2.5-.8-5.1-5.2-5-8h34.1c-3.4-12.4-19.4-10.3-30-9.6s-1.9-.1-2.7,0h-8.2c-.7-6.5-3.8-6.7,2.7-9.6,6.2,2.7,15.2,1.4,21.8.7-6.5-12.1-15-10.7-27.2-10.3-1.3-9.3,1.1-5,6.8-8.9,0-3.3-3.1-3.9-5.5-4.8-2.8-7.9-2.2-7.6-2.7-16.4h1.4l84.6,84.6v.2Z"/>
    <path class="st4" d="M1323.3,761.9h1.4l-17.8,17.8c-.9-14.1,2.3-18.6,16.4-17.8Z"/>
    <path class="st4" d="M1395.7,521.7v12.3c-9.5-5.2-17.1-15.4-24.5-23.1,12.9-5.7,15.8,4.7,24.5,10.9h0Z"/>
    <path class="st4" d="M1350.5,543.5c-4.6-4.7-8.7-10-13.6-14.4,0-.3,5.7-4.6,6.2-4.6,2.5,0,30.9,32.3,36.1,35.9-5.6,4.4-7.3,4.1-12.3-.7-.3-.5-1-.9-1.4-1.4-3.9-5.5-9.1-9-13.7-13.7s-.9-.9-1.4-1.4h0Z"/>
  </g>
</svg>